name D:\school\WTK\thesis\model\3dpredictsim\Results\Batchsim_tmt_linear_v2\Pog_s1_tmt_bCst_d05_k800_ig24_act.mot
datacolumns 128
datarows 4
range 0.00000000 0.03853214
endheader
time	pelvis_tilt	pelvis_list	pelvis_rotation	pelvis_tx	pelvis_ty	pelvis_tz	hip_flexion_l	hip_adduction_l	hip_rotation_l	hip_flexion_r	hip_adduction_r	hip_rotation_r	knee_angle_l	knee_angle_r	ankle_angle_l	ankle_angle_r	subtalar_angle_l	subtalar_angle_r	tmt_angle_l	tmt_angle_r	mtp_angle_l	mtp_angle_r	lumbar_extension	lumbar_bending	lumbar_rotation	arm_flex_l	arm_add_l	arm_rot_l	arm_flex_r	arm_add_r	arm_rot_r	elbow_flex_l	elbow_flex_r	pro_sup_l	pro_sup_r	glut_med1_l/activation	glut_med2_l/activation	glut_med3_l/activation	glut_min1_l/activation	glut_min2_l/activation	glut_min3_l/activation	semimem_l/activation	semiten_l/activation	bifemlh_l/activation	bifemsh_l/activation	sar_l/activation	add_long_l/activation	add_brev_l/activation	add_mag1_l/activation	add_mag2_l/activation	add_mag3_l/activation	tfl_l/activation	pect_l/activation	grac_l/activation	glut_max1_l/activation	glut_max2_l/activation	glut_max3_l/activation	iliacus_l/activation	psoas_l/activation	quad_fem_l/activation	gem_l/activation	peri_l/activation	rect_fem_l/activation	vas_med_l/activation	vas_int_l/activation	vas_lat_l/activation	med_gas_l/activation	lat_gas_l/activation	soleus_l/activation	tib_post_l/activation	flex_dig_l/activation	flex_hal_l/activation	tib_ant_l/activation	per_brev_l/activation	per_long_l/activation	per_tert_l/activation	ext_dig_l/activation	ext_hal_l/activation	ercspn_l/activation	intobl_l/activation	extobl_l/activation	glut_med1_r/activation	glut_med2_r/activation	glut_med3_r/activation	glut_min1_r/activation	glut_min2_r/activation	glut_min3_r/activation	semimem_r/activation	semiten_r/activation	bifemlh_r/activation	bifemsh_r/activation	sar_r/activation	add_long_r/activation	add_brev_r/activation	add_mag1_r/activation	add_mag2_r/activation	add_mag3_r/activation	tfl_r/activation	pect_r/activation	grac_r/activation	glut_max1_r/activation	glut_max2_r/activation	glut_max3_r/activation	iliacus_r/activation	psoas_r/activation	quad_fem_r/activation	gem_r/activation	peri_r/activation	rect_fem_r/activation	vas_med_r/activation	vas_int_r/activation	vas_lat_r/activation	med_gas_r/activation	lat_gas_r/activation	soleus_r/activation	tib_post_r/activation	flex_dig_r/activation	flex_hal_r/activation	tib_ant_r/activation	per_brev_r/activation	per_long_r/activation	per_tert_r/activation	ext_dig_r/activation	ext_hal_r/activation	ercspn_r/activation	intobl_r/activation	extobl_r/activation	
          0.00000000	         -1.34147101	          1.54391858	          9.38302622	          0.00000000	          0.86051540	         -0.00401322	        -16.91285482	         -0.00567395	          4.72466131	         28.49330875	         -2.86910781	         -1.38783782	        -16.79058532	         -7.21512529	        -11.29198828	          9.26592664	          8.16867167	          3.66863989	          1.36662629	          0.02387353	         34.35692998	         -0.06872955	          1.05038209	         -5.22992071	         -3.60924048	          2.11179060	        -13.53450421	          9.92840063	        -13.47765779	        -13.44970799	         15.69108575	         29.58501965	         19.03373442	         86.51662706	         86.51662706	          0.21591630	          0.05008376	          0.05000042	          0.20177054	          0.10863055	          0.06070312	          0.05000251	          0.05000027	          0.05000036	          0.05000081	          0.07369754	          0.15934506	          0.05000134	          0.05000109	          0.05000137	          0.05000102	          0.13456405	          0.05004601	          0.05000104	          0.05000202	          0.05000143	          0.05000130	          0.26413039	          0.48120157	          0.05000025	          0.05000142	          0.07369778	          0.33016264	          0.05000362	          0.05281607	          0.06226342	          0.05000001	          0.07424191	          0.05000000	          0.10862774	          0.09605180	          0.11346520	          0.06183801	          0.20142826	          0.17859545	          0.32536770	          0.35943715	          0.10692869	          0.05000000	          0.06922288	          0.06744326	          0.08894401	          0.06508715	          0.09618419	          0.05000118	          0.05000272	          0.05000194	          0.07174454	          0.06556404	          0.06128989	          0.07369750	          0.06070369	          0.05000031	          0.05000029	          0.13702260	          0.12586878	          0.12334251	          0.06070710	          0.05000107	          0.05359089	          0.07369246	          0.08872319	          0.12751716	          0.08424384	          0.07140709	          0.07782102	          0.05298988	          0.08051875	          0.05000007	          0.05000054	          0.05000054	          0.05000050	          0.06070337	          0.06070338	          0.06070336	          0.06070336	          0.05000071	          0.06070334	          0.44695361	          0.24827507	          0.15924846	          0.12311994	          0.53005291	          0.31412915	          0.05000001	          0.18710142	          0.14700859	
          0.01284405	         -1.33020319	          1.79114056	          9.43345506	          0.02207372	          0.85955198	         -0.00370052	        -17.09438587	         -0.12897874	          4.51366080	         27.95346195	         -2.89941419	         -1.20503060	        -18.30717708	         -7.75523404	        -14.44739819	          8.60728405	          8.66505366	          3.41057341	          1.10082115	          0.04703440	         35.54549546	         -0.06151446	          1.35316675	         -5.13344013	         -3.71265067	          1.76759573	        -13.59832259	         10.37608464	        -15.63005570	        -13.45692701	         15.84022840	         30.67652760	         19.40602090	         86.51662706	         86.51662706	          0.17784542	          0.05000012	          0.05000013	          0.16619390	          0.08947660	          0.05000047	          0.05000113	          0.05000014	          0.05000016	          0.05000015	          0.06070351	          0.26021101	          0.24868922	          0.18942410	          0.05000725	          0.05000066	          0.11083742	          0.11918830	          0.05169686	          0.05000132	          0.05000089	          0.05000096	          0.21755831	          0.42355017	          0.07056891	          0.05001347	          0.06070332	          0.27194754	          0.06540328	          0.07051659	          0.05415838	          0.05000005	          0.06115141	          0.05000001	          0.08947423	          0.07911578	          0.09345876	          0.21401373	          0.30311745	          0.19606333	          0.48154525	          0.51242491	          0.08807479	          0.05494495	          0.07148442	          0.06949490	          0.14332216	          0.11835614	          0.21867194	          0.05000343	          0.05000248	          0.05000049	          0.05909440	          0.05400376	          0.05048322	          0.06070305	          0.05000116	          0.05000727	          0.08550301	          0.16011271	          0.22031778	          0.16768297	          0.05000315	          0.05000729	          0.05428471	          0.06070336	          0.15884300	          0.20228277	          0.06938978	          0.05881643	          0.06409966	          0.05002596	          0.16507239	          0.06070418	          0.21395825	          0.24804606	          0.17513929	          0.05000000	          0.05000001	          0.05000000	          0.05000002	          0.05012851	          0.05000023	          0.63771080	          0.32182347	          0.19429696	          0.52761166	          0.62623673	          0.47156489	          0.05000002	          0.15411123	          0.12108766	
          0.02568809	         -1.31178423	          2.02285669	          9.44122609	          0.04416476	          0.85806693	         -0.00338786	        -17.11164920	         -0.23128710	          4.32151584	         27.34240548	         -2.88144253	         -1.00557399	        -20.13131931	         -8.96273058	        -17.00335389	          7.65457135	          9.15354311	          3.17024875	          0.79570291	         -0.04636416	         35.08515639	         -0.12103580	          1.64013946	         -4.99208543	         -3.79659398	          1.40514898	        -13.67463683	         10.80946565	        -17.73769036	        -13.48453039	         16.08658441	         31.75847770	         19.72938936	         86.51662706	         86.51662706	          0.14648735	          0.06070315	          0.06070335	          0.13689022	          0.07369993	          0.05000147	          0.05000282	          0.05000224	          0.06070324	          0.05000011	          0.05000042	          0.23728995	          0.31199711	          0.15603043	          0.06259503	          0.06376151	          0.09129435	          0.09817348	          0.06070351	          0.06069506	          0.06070292	          0.06070357	          0.17919791	          0.40446069	          0.06070342	          0.06070274	          0.05000021	          0.22399707	          0.05388342	          0.08085204	          0.06686528	          0.05000003	          0.05036909	          0.05000001	          0.07369792	          0.06516601	          0.07697990	          0.25349276	          0.28527099	          0.17863681	          0.57478987	          0.65055386	          0.31333283	          0.07286218	          0.06070336	          0.05724143	          0.21070487	          0.25144793	          0.40128156	          0.05000127	          0.05000068	          0.30614692	          0.06297612	          0.05000009	          0.05735516	          0.05000006	          0.05000045	          0.06070343	          0.07042716	          0.13188152	          0.18147187	          0.16998927	          0.05000020	          0.06070347	          0.06219960	          0.05000024	          0.19360185	          0.21548097	          0.06070233	          0.05000090	          0.05279760	          0.05000093	          0.28633964	          0.05000074	          0.17623266	          0.20431002	          0.14425835	          0.06070329	          0.06070334	          0.06070335	          0.05000035	          0.06070327	          0.06070337	          0.58653071	          0.29675330	          0.16003863	          0.43458192	          0.64189386	          0.40844649	          0.05000003	          0.12693795	          0.09973718	
          0.03853214	         -1.28987325	          2.22759939	          9.40143032	          0.06591622	          0.85629715	         -0.00306764	        -16.93178500	         -0.32289125	          4.14332119	         26.69859299	         -2.81797669	         -0.78226747	        -22.31435363	        -10.32626289	        -18.86231530	          6.81052725	          9.59940357	          2.93771914	          0.59892060	         -0.01966881	         32.67256314	         -0.14245751	          1.88966712	         -4.79631007	         -3.86235971	          1.09134657	        -13.74350510	         11.24453114	        -19.70626944	        -13.52238800	         16.45295457	         32.75691571	         19.92134777	         86.51662706	         86.51662706	          0.12065868	          0.05000004	          0.05000001	          0.11848541	          0.06070516	          0.05000014	          0.05349986	          0.05000007	          0.05000017	          0.05000010	          0.05720544	          0.20540386	          0.25698507	          0.12851885	          0.05155834	          0.05251904	          0.07519721	          0.08086372	          0.05000030	          0.05000039	          0.05000032	          0.05000038	          0.14760140	          0.40030685	          0.05000006	          0.05000013	          0.05000011	          0.18450136	          0.08947413	          0.08947401	          0.05507556	          0.05000008	          0.05000020	          0.05000002	          0.06070333	          0.05367612	          0.06340666	          0.28206578	          0.26869342	          0.16744457	          0.48639738	          0.81174816	          0.25808522	          0.11395058	          0.05000000	          0.05000002	          0.28856129	          0.37780410	          0.46827858	          0.14213435	          0.23955162	          0.25217042	          0.05187391	          0.07369806	          0.05823207	          0.06070341	          0.05000025	          0.05000008	          0.05800929	          0.10862792	          0.18375390	          0.18286183	          0.05000016	          0.05000035	          0.05123541	          0.27591921	          0.25317215	          0.24010285	          0.05000002	          0.05000002	          0.13190217	          0.05549743	          0.23585171	          0.05000001	          0.14515895	          0.16828571	          0.11882243	          0.05000000	          0.05000001	          0.05000000	          0.05000000	          0.05000011	          0.05000008	          0.72335588	          0.34704002	          0.17088426	          0.69540088	          0.76134054	          0.56390257	          0.05000011	          0.10455593	          0.08215127	
